<svg version="1.1" id="Layer_1" xmlns="http://www.w3.org/2000/svg" x="0px" y="0px"
	 width="100%" viewBox="0 0 150 150" xml:space="preserve">
<!--<path fill="#000000" opacity="1.000000" stroke="none" -->
<!--	d="-->
<!--M87.000000,151.000000 -->
<!--	C58.023762,151.000000 29.547527,151.000000 1.035645,151.000000 -->
<!--	C1.035645,101.065475 1.035645,51.130920 1.035645,1.098181 -->
<!--	C50.892685,1.098181 100.785629,1.098181 150.839294,1.098181 -->
<!--	C150.839294,50.999584 150.839294,100.999748 150.839294,151.000000 -->
<!--	C129.797943,151.000000 108.648972,151.000000 87.000000,151.000000 -->
<!--M75.021873,99.507812 -->
<!--	C50.830753,87.563568 42.865761,65.351166 38.048450,40.037357 -->
<!--	C36.960537,42.944893 36.218208,44.928825 35.374836,47.182808 -->
<!--	C25.467941,42.555840 23.336395,32.398098 18.535244,23.978426 -->
<!--	C18.247118,28.707045 18.191689,33.279415 19.108280,37.647839 -->
<!--	C21.205814,47.644577 25.065542,57.270767 34.848682,61.645477 -->
<!--	C40.390388,64.123558 42.310894,67.871170 44.011036,72.645851 -->
<!--	C44.608185,74.322906 45.132591,76.025848 45.788681,78.015594 -->
<!--	C34.157131,77.751610 25.563263,70.753845 16.260069,64.815941 -->
<!--	C16.724411,70.321991 16.575956,70.479752 24.906408,78.318893 -->
<!--	C31.864721,84.866821 39.983723,89.960823 49.805607,89.802361 -->
<!--	C56.568413,89.693253 59.656841,93.967674 64.060638,97.473808 -->
<!--	C52.303135,100.603905 41.831589,96.361519 30.912710,94.671043 -->
<!--	C32.260746,96.570213 33.706562,98.230347 35.527874,98.988899 -->
<!--	C42.313232,101.814919 49.046150,105.108963 56.140678,106.740669 -->
<!--	C61.668957,108.012131 68.084633,108.367004 73.418587,106.795784 -->
<!--	C80.061066,104.839104 84.594383,108.425407 90.809425,109.410683 -->
<!--	C81.171211,120.294373 68.448311,122.016953 55.395157,125.479187 -->
<!--	C57.626919,126.190109 58.910652,126.973953 60.172047,126.939522 -->
<!--	C67.915199,126.728226 75.827271,127.227448 83.348312,125.766556 -->
<!--	C92.404411,124.007484 101.832863,121.774689 106.910477,112.421181 -->
<!--	C107.268028,111.762550 108.346855,111.007286 109.003319,111.080170 -->
<!--	C112.639961,111.483994 116.249641,112.130493 120.001328,112.714546 -->
<!--	C115.835182,124.214180 105.990707,129.368073 96.654968,135.841431 -->
<!--	C112.741364,136.441483 133.769638,119.692345 133.451477,107.201523 -->
<!--	C113.665703,108.940414 94.049782,109.269638 75.021873,99.507812 -->
<!--M62.026978,86.547012 -->
<!--	C79.074562,98.659523 111.290985,107.677879 120.117828,102.648872 -->
<!--	C116.428421,101.741127 112.902863,100.775085 109.333832,100.012474 -->
<!--	C93.087013,96.540939 78.237724,91.377556 67.099312,77.401382 -->
<!--	C59.264065,67.569931 57.806808,57.525444 59.356110,46.023819 -->
<!--	C59.594002,44.257778 59.662296,41.971691 58.755093,40.648979 -->
<!--	C56.671444,37.611000 53.937847,35.018803 51.468067,32.245659 -->
<!--	C49.704121,36.753311 49.255268,40.424416 48.741600,44.086422 -->
<!--	C46.502708,60.047943 50.539783,74.089111 62.026978,86.547012 -->
<!--M88.005119,33.492249 -->
<!--	C78.748558,25.771147 45.733978,19.407396 38.836529,23.227177 -->
<!--	C42.914944,24.189337 46.730988,25.210327 50.596970,25.980696 -->
<!--	C67.150055,29.279203 82.252068,35.315857 92.754486,49.335358 -->
<!--	C98.376190,56.839661 100.823814,65.404419 99.334633,74.929619 -->
<!--	C98.851311,78.021004 97.956322,81.726730 99.158676,84.237114 -->
<!--	C100.788895,87.640816 104.256035,90.164703 106.935226,93.065994 -->
<!--	C107.437019,92.846794 107.938812,92.627594 108.440605,92.408394 -->
<!--	C108.930672,85.556816 109.894913,78.699783 109.816223,71.854744 -->
<!--	C109.628151,55.494110 102.862686,42.561825 88.005119,33.492249 -->
<!--M93.596764,63.751869 -->
<!--	C92.855164,61.781982 92.259354,59.741222 91.343002,57.856289 -->
<!--	C89.126778,53.297489 85.385376,50.647835 80.383133,50.011852 -->
<!--	C74.413948,49.252941 70.612328,52.644306 67.998795,57.385811 -->
<!--	C65.235062,62.399799 66.118500,67.343842 69.385849,71.935471 -->
<!--	C70.676086,73.748657 71.910561,75.601540 72.915932,77.065704 -->
<!--	C74.016373,77.002380 75.311249,76.674263 76.500565,76.900665 -->
<!--	C84.082230,78.343971 92.499847,72.339806 93.596764,63.751869 -->
<!--z"/>-->
<path fill="#F0FEF9" opacity="1.000000" stroke="none" 
	d="
M75.335815,99.734665 
	C94.049782,109.269638 113.665703,108.940414 133.451477,107.201523 
	C133.769638,119.692345 112.741364,136.441483 96.654968,135.841431 
	C105.990707,129.368073 115.835182,124.214180 120.001328,112.714546 
	C116.249641,112.130493 112.639961,111.483994 109.003319,111.080170 
	C108.346855,111.007286 107.268028,111.762550 106.910477,112.421181 
	C101.832863,121.774689 92.404411,124.007484 83.348312,125.766556 
	C75.827271,127.227448 67.915199,126.728226 60.172047,126.939522 
	C58.910652,126.973953 57.626919,126.190109 55.395157,125.479187 
	C68.448311,122.016953 81.171211,120.294373 90.809425,109.410683 
	C84.594383,108.425407 80.061066,104.839104 73.418587,106.795784 
	C68.084633,108.367004 61.668957,108.012131 56.140678,106.740669 
	C49.046150,105.108963 42.313232,101.814919 35.527874,98.988899 
	C33.706562,98.230347 32.260746,96.570213 30.912710,94.671043 
	C41.831589,96.361519 52.303135,100.603905 64.060638,97.473808 
	C59.656841,93.967674 56.568413,89.693253 49.805607,89.802361 
	C39.983723,89.960823 31.864721,84.866821 24.906408,78.318893 
	C16.575956,70.479752 16.724411,70.321991 16.260069,64.815941 
	C25.563263,70.753845 34.157131,77.751610 45.788681,78.015594 
	C45.132591,76.025848 44.608185,74.322906 44.011036,72.645851 
	C42.310894,67.871170 40.390388,64.123558 34.848682,61.645477 
	C25.065542,57.270767 21.205814,47.644577 19.108280,37.647839 
	C18.191689,33.279415 18.247118,28.707045 18.535244,23.978426 
	C23.336395,32.398098 25.467941,42.555840 35.374836,47.182808 
	C36.218208,44.928825 36.960537,42.944893 38.048450,40.037357 
	C42.865761,65.351166 50.830753,87.563568 75.335815,99.734665 
z"/>
<path fill="#EEFCF7" opacity="1.000000" stroke="none" 
	d="
M61.773922,86.282433 
	C50.539783,74.089111 46.502708,60.047943 48.741600,44.086422 
	C49.255268,40.424416 49.704121,36.753311 51.468067,32.245659 
	C53.937847,35.018803 56.671444,37.611000 58.755093,40.648979 
	C59.662296,41.971691 59.594002,44.257778 59.356110,46.023819 
	C57.806808,57.525444 59.264065,67.569931 67.099312,77.401382 
	C78.237724,91.377556 93.087013,96.540939 109.333832,100.012474 
	C112.902863,100.775085 116.428421,101.741127 120.117828,102.648872 
	C111.290985,107.677879 79.074562,98.659523 61.773922,86.282433 
z"/>
<path fill="#EFFCF7" opacity="1.000000" stroke="none" 
	d="
M88.301514,33.724297 
	C102.862686,42.561825 109.628151,55.494110 109.816223,71.854744 
	C109.894913,78.699783 108.930672,85.556816 108.440605,92.408394 
	C107.938812,92.627594 107.437019,92.846794 106.935226,93.065994 
	C104.256035,90.164703 100.788895,87.640816 99.158676,84.237114 
	C97.956322,81.726730 98.851311,78.021004 99.334633,74.929619 
	C100.823814,65.404419 98.376190,56.839661 92.754486,49.335358 
	C82.252068,35.315857 67.150055,29.279203 50.596970,25.980696 
	C46.730988,25.210327 42.914944,24.189337 38.836529,23.227177 
	C45.733978,19.407396 78.748558,25.771147 88.301514,33.724297 
z"/>
<path fill="#EAF7F2" opacity="1.000000" stroke="none" 
	d="
M93.646484,64.140091 
	C92.499847,72.339806 84.082230,78.343971 76.500565,76.900665 
	C75.311249,76.674263 74.016373,77.002380 72.915932,77.065704 
	C71.910561,75.601540 70.676086,73.748657 69.385849,71.935471 
	C66.118500,67.343842 65.235062,62.399799 67.998795,57.385811 
	C70.612328,52.644306 74.413948,49.252941 80.383133,50.011852 
	C85.385376,50.647835 89.126778,53.297489 91.343002,57.856289 
	C92.259354,59.741222 92.855164,61.781982 93.646484,64.140091 
M73.823402,67.235756 
	C75.915718,70.073975 78.666214,72.219109 82.170395,70.841858 
	C84.602638,69.885918 87.099442,67.974167 88.513245,65.803009 
	C90.775337,62.329144 88.402733,59.008980 85.966301,56.780430 
	C84.466583,55.408672 81.407890,54.679268 79.386551,55.140385 
	C73.490082,56.485512 72.100357,59.546066 73.823402,67.235756 
z"/>
<!--<path fill="#000000" opacity="1.000000" stroke="none" -->
<!--	d="-->
<!--M73.507721,66.962814 -->
<!--	C72.100357,59.546066 73.490082,56.485512 79.386551,55.140385 -->
<!--	C81.407890,54.679268 84.466583,55.408672 85.966301,56.780430 -->
<!--	C88.402733,59.008980 90.775337,62.329144 88.513245,65.803009 -->
<!--	C87.099442,67.974167 84.602638,69.885918 82.170395,70.841858 -->
<!--	C78.666214,72.219109 75.915718,70.073975 73.507721,66.962814 -->
<!--z"/>-->
</svg>